<svg xmlns="http://www.w3.org/2000/svg" xmlns:xlink="http://www.w3.org/1999/xlink"><symbol id="skype" viewBox="0 0 512 512">
	<path d="M481.5,296.8c1.1-6.2,2-12.5,2.6-19c0.7-7.3,1-14.6,1-21.8c0-63.3-25.7-120.6-67.1-162
		c-41.5-41.5-98.8-67.1-162-67.1c-7.2,0-14.5,0.3-21.8,1c-6.5,0.6-12.8,1.5-19,2.6C189.7,9.2,157.9-1,126.5,0.1
		C94.5,1.2,62.8,14,38.4,38.4C14,62.8,1.2,94.5,0.1,126.5c-1.1,31.4,9.1,63.1,30.4,88.6c-1.1,6.2-2,12.5-2.6,19
		c-0.7,7.3-1,14.6-1,21.8c0,63.3,25.6,120.6,67.1,162s98.8,67.1,162,67.1c7.2,0,14.5-0.3,21.8-1c6.5-0.6,12.8-1.5,19-2.6
		c25.5,21.3,57.2,31.5,88.6,30.4c32-1.1,63.7-13.9,88.2-38.3c24.4-24.4,37.2-56.1,38.3-88.2C513,354.1,502.9,322.4,481.5,296.8z
		 M345.9,373.1c-22.8,17.6-54.6,26.1-85.6,26.1c-34.1,0-65.4-7.7-88.3-20c-23.8-12.9-38.6-30.9-38.6-51.1c0-9.9,3-19.4,9.6-26.2
		c5.8-6,14.2-9.8,25.4-9.8c15.9,0,25,9.2,35.3,19.7c11.6,11.8,25,25.4,53.5,25.4c11.7,0,21.2-2.5,27.8-6.5c6-3.7,9.4-8.9,9.4-14.6
		c0-13.4-12.9-16.6-34.2-21.9l-3.8-0.9l-43.1-10.5h0c-22.1-5.4-41.8-12.8-56.2-25.3c-14.8-12.9-23.8-30.9-23.8-57.2
		c0-63.7,62.2-87.3,115.4-87.3c30,0,60.2,6.3,82.2,17.2c21.2,10.5,35.1,25.6,35.1,43.9c0,9.8-3.4,19.2-9.5,26.1
		c-6.2,7-15.3,11.5-26.5,11.5v0c-14.7,0-22.7-7.2-31.6-15.2c-9.6-8.6-20.4-18.4-44.2-18.4c-12.4,0-22.3,1.6-28.8,5.1
		c-5,2.7-7.9,6.6-7.9,12c0,6.1,3,10,8.2,12.8c6.4,3.4,15.8,5.6,26.6,8h0.1l30.6,7c21.3,4.9,44.8,11.8,63.1,24.3
		c19,12.9,32.5,31.5,32.5,59.3C378.7,335.7,365.7,357.8,345.9,373.1z"/>
</symbol><symbol id="telegram" viewBox="0 0 512 512">
<path d="M256,0C114.6,0,0,114.6,0,256s114.6,256,256,256s256-114.6,256-256S397.4,0,256,0z M328.6,234.2
	c-9,26-19.3,55.9-23,66.4c-12.3,35.6-21.6,59.5-24.8,63.1c-4.3,4.7-11.9,4.3-17.2-1.1c-2.5-2.5-11.2-17.7-19.4-33.8
	c-8.2-16.1-16.5-31.6-18.5-34.5c-2.3-3.3-15.4-11.1-35-21c-35.3-17.8-40.1-21.6-39.1-31.4c0.9-9,4.5-10.8,54.2-28.1
	c22.7-7.9,59.4-20.7,81.5-28.3c22.1-7.7,42.6-14,45.6-14c6.2,0,12.1,5.5,12.1,11.4C345,185.1,337.6,208.2,328.6,234.2z"/>
</symbol><symbol id="viber" viewBox="0 0 512 512">
<g id="Icons">
	<g id="Black" transform="translate(-598.000000, -758.000000)">
		<path id="Viber" class="st0" d="M854,758c-141.4,0-256,114.6-256,256s114.6,256,256,256s256-114.6,256-256S995.4,758,854,758z
			 M843,863.4c2.4-2.2,4.1-2.5,12.3-2.2c4.3,0.2,10.6,0.7,14.1,1.1c17.4,2.2,31.5,6.4,46.9,13.9c15.2,7.4,24.9,14.5,37.8,27.2
			c12,12.1,18.7,21.2,25.8,35.4c9.9,19.8,15.5,43.3,16.5,69.3c0.4,8.8,0.1,10.8-1.9,13.3c-3.9,4.9-12.3,4.1-15.2-1.4
			c-0.9-1.8-1.2-3.4-1.5-10.5c-0.5-10.9-1.3-17.9-2.8-26.3c-6-32.9-21.8-59.2-47-78c-21-15.8-42.7-23.4-71.1-25.1
			c-9.6-0.5-11.3-0.9-13.5-2.6C839.3,874.4,839.1,866.9,843,863.4z M903.3,928.5c-10.2-6.1-25.2-10.6-38.9-11.7
			c-5-0.4-7.7-1.4-9.6-3.6c-2.9-3.3-3.2-7.7-0.8-11.4c2.6-4.1,6.7-4.8,18.8-2.9c30.7,4.5,54.5,18.7,70.1,41.9
			c8.8,13,14.2,28.4,16.1,44.8c0.7,6,0.7,17,0,18.8c-0.7,1.7-2.8,4-4.6,5c-2,1-6.2,0.9-8.5-0.3c-3.9-2-5.1-5.1-5.1-13.6
			c0-13.1-3.4-26.9-9.3-37.6C924.8,945.6,915.1,935.5,903.3,928.5z M920.4,995.9c-3,2.7-8.5,2.8-11.8,0.3c-2.4-1.8-3.2-3.7-3.8-8.9
			c-0.6-6.9-1.9-11.8-3.9-16.3c-4.5-9.5-12.3-14.5-25.6-16.1c-6.2-0.8-8.1-1.5-10.1-3.8c-3.7-4.4-2.3-11.5,2.8-14.2
			c1.9-1,2.7-1.1,7-0.8c2.6,0.2,6.5,0.6,8.6,1.1c10,2.1,17.6,5.9,24.1,12c8.4,7.9,13,17.5,15,31.3
			C924.1,989.4,923.6,992.9,920.4,995.9z M996,1128.6c-3.8,9.7-18.3,27.7-28.5,35.5c-9.2,7-15.7,9.6-24.3,10.1
			c-7.1,0.3-10-0.3-19.1-4c-71-29.3-127.8-72.9-172.8-132.9c-23.5-31.3-41.4-63.8-53.7-97.5c-7.1-19.7-7.5-28.2-1.6-38.2
			c2.5-4.3,13.3-14.8,21.2-20.6c13.1-9.7,19.1-13.3,23.9-14.3c3.3-0.7,9-0.2,12.6,1.2c1.8,0.6,4.5,2,6.1,3
			c9.6,6.4,36.4,40.6,45.1,57.7c5,9.8,6.7,17,5.1,22.3c-1.6,5.8-4.3,8.8-16.3,18.4c-4.8,3.9-9.3,7.9-10,8.9
			c-1.8,2.6-3.3,7.8-3.3,11.4c0,8.4,5.5,23.8,12.7,35.5c5.6,9.1,15.5,20.9,25.4,29.9c11.6,10.6,21.8,17.8,33.3,23.5
			c14.8,7.4,23.9,9.3,30.5,6.2c1.7-0.8,3.4-1.8,4-2.2c0.5-0.4,4.4-5.2,8.7-10.4c8.2-10.3,10.1-12,15.7-13.9c7.1-2.4,14.4-1.8,21.8,2
			c5.6,2.9,17.7,10.4,25.6,15.9c10.3,7.2,32.4,25.2,35.4,28.8C998.6,1111.2,999.5,1119.4,996,1128.6z"/>
	</g>
</g>
</symbol><symbol id="whatsapp" viewBox="0 0 512 512">
		<path d="M438.8,72.7C393.5,27.8,331.1,0,262.1,0c-69,0-131.5,27.7-176.8,72.6c-45.3,44.9-73.3,106.9-73.3,175.4
			c0,23,3.2,45.3,9.1,66.5c5.9,21.1,14.5,41,25.5,59.4L3.4,501.9L0,512l10.2-3.3l133.1-42.4c17.6,9.5,36.5,16.9,56.3,22
			c20,5.1,40.9,7.8,62.5,7.8c69,0,131.5-27.8,176.7-72.6C484,378.6,512,316.6,512,248.2C512,179.6,484,117.6,438.8,72.7z
			 M410.6,327.1c-0.7,5.7-2.2,12.6-4.9,20.1c-3,8.4-10.9,16.3-19.8,22.6c-10.9,7.6-23.7,13-31.6,13.7c-1.8,0.1-3.4,0.5-5,1
			c-9.7,2.4-20.6,5-80.8-18.5c-66.3-25.9-109.9-89.7-119.4-103.6c-0.8-1.2-1.4-2-1.5-2.2l-0.1,0l0,0c-3.8-5-29.4-38.9-29.4-74.4
			c0-34,16.8-51.7,24.6-59.8c0.4-0.4,0.8-0.8,1.2-1.3c3.3-3.6,6.8-6,10.2-7.6c4.6-2.2,9.1-2.8,12.3-2.8c2.4,0,5,0.2,7.5,0.3
			c2,0.2,3.9,0.3,5.8,0.3c0.5,0,0.8,0,1.2-0.1c5.6-0.3,12.9-0.8,19.4,14.8c0.7,1.7,4.3,10.3,8,19.3c5.8,14.1,12.1,29.4,13.3,31.6
			c1.1,2.2,2,4.6,2.3,7.4c0.3,3-0.1,6.1-1.8,9.4l0,0c-0.3,0.7-0.7,1.4-1,2.1c-1.9,3.8-3.3,6.6-6.6,10.6l0,0
			c-1.4,1.6-2.5,2.9-3.6,4.3c-1.2,1.5-2.5,3-3.7,4.4s-2.4,2.7-3.4,3.8c-2,2-4.1,4.1-2.2,7.4c2.4,4.2,8.6,14.2,17.6,25.4
			c5.6,6.9,12.3,14.3,19.9,21.1c21.3,18.9,40,27,49.6,31.1c1.9,0.8,3.5,1.5,5,2.3c2.5,1.2,4.3,1.8,5.5,1.6c1-0.1,1.9-0.8,3-2v0
			c2.6-3,8.6-10,13.8-16.2c1.6-2,3.1-3.9,4.5-5.6s2.5-3.3,3.3-4.5c3.3-5,6.9-7.1,11-7.6c3.6-0.4,7,0.7,10.9,2
			c2.8,1,9.7,4.1,17.6,7.9c6.1,2.9,12.6,6,18.3,8.8c5.6,2.7,10.1,5,12.2,6c1.1,0.5,2.2,1,3.3,1.5c6,2.8,9.9,4.7,12.2,8.5l0,0
			C410.8,312.3,411.6,318.8,410.6,327.1z"/>
		<path class="st1" d="M438.8,72.7C393.5,27.8,331.1,0,262.1,0c-69,0-131.5,27.7-176.8,72.6c-45.3,44.9-73.3,106.9-73.3,175.4
			c0,23,3.2,45.3,9.1,66.5c5.9,21.1,14.5,41,25.5,59.4L3.4,501.9L0,512l10.2-3.3l133.1-42.4c17.6,9.5,36.5,16.9,56.3,22
			c20,5.1,40.9,7.8,62.5,7.8c69,0,131.5-27.8,176.7-72.6C484,378.6,512,316.6,512,248.2C512,179.6,484,117.6,438.8,72.7z
			 M410.6,327.1c-0.7,5.7-2.2,12.6-4.9,20.1c-3,8.4-10.9,16.3-19.8,22.6c-10.9,7.6-23.7,13-31.6,13.7c-1.8,0.1-3.4,0.5-5,1
			c-9.7,2.4-20.6,5-80.8-18.5c-66.3-25.9-109.9-89.7-119.4-103.6c-0.8-1.2-1.4-2-1.5-2.2l-0.1,0l0,0c-3.8-5-29.4-38.9-29.4-74.4
			c0-34,16.8-51.7,24.6-59.8c0.4-0.4,0.8-0.8,1.2-1.3c3.3-3.6,6.8-6,10.2-7.6c4.6-2.2,9.1-2.8,12.3-2.8c2.4,0,5,0.2,7.5,0.3
			c2,0.2,3.9,0.3,5.8,0.3c0.5,0,0.8,0,1.2-0.1c5.6-0.3,12.9-0.8,19.4,14.8c0.7,1.7,4.3,10.3,8,19.3c5.8,14.1,12.1,29.4,13.3,31.6
			c1.1,2.2,2,4.6,2.3,7.4c0.3,3-0.1,6.1-1.8,9.4l0,0c-0.3,0.7-0.7,1.4-1,2.1c-1.9,3.8-3.3,6.6-6.6,10.6l0,0
			c-1.4,1.6-2.5,2.9-3.6,4.3c-1.2,1.5-2.5,3-3.7,4.4s-2.4,2.7-3.4,3.8c-2,2-4.1,4.1-2.2,7.4c2.4,4.2,8.6,14.2,17.6,25.4
			c5.6,6.9,12.3,14.3,19.9,21.1c21.3,18.9,40,27,49.6,31.1c1.9,0.8,3.5,1.5,5,2.3c2.5,1.2,4.3,1.8,5.5,1.6c1-0.1,1.9-0.8,3-2v0
			c2.6-3,8.6-10,13.8-16.2c1.6-2,3.1-3.9,4.5-5.6s2.5-3.3,3.3-4.5c3.3-5,6.9-7.1,11-7.6c3.6-0.4,7,0.7,10.9,2
			c2.8,1,9.7,4.1,17.6,7.9c6.1,2.9,12.6,6,18.3,8.8c5.6,2.7,10.1,5,12.2,6c1.1,0.5,2.2,1,3.3,1.5c6,2.8,9.9,4.7,12.2,8.5l0,0
			C410.8,312.3,411.6,318.8,410.6,327.1z"/>
</symbol></svg>