<svg xmlns="http://www.w3.org/2000/svg" x="0px" y="0px" viewBox="0 0 512 512">
	<path d="M481.5,296.8c1.1-6.2,2-12.5,2.6-19c0.7-7.3,1-14.6,1-21.8c0-63.3-25.7-120.6-67.1-162
		c-41.5-41.5-98.8-67.1-162-67.1c-7.2,0-14.5,0.3-21.8,1c-6.5,0.6-12.8,1.5-19,2.6C189.7,9.2,157.9-1,126.5,0.1
		C94.5,1.2,62.8,14,38.4,38.4C14,62.8,1.2,94.5,0.1,126.5c-1.1,31.4,9.1,63.1,30.4,88.6c-1.1,6.2-2,12.5-2.6,19
		c-0.7,7.3-1,14.6-1,21.8c0,63.3,25.6,120.6,67.1,162s98.8,67.1,162,67.1c7.2,0,14.5-0.3,21.8-1c6.5-0.6,12.8-1.5,19-2.6
		c25.5,21.3,57.2,31.5,88.6,30.4c32-1.1,63.7-13.9,88.2-38.3c24.4-24.4,37.2-56.1,38.3-88.2C513,354.1,502.9,322.4,481.5,296.8z
		 M345.9,373.1c-22.8,17.6-54.6,26.1-85.6,26.1c-34.1,0-65.4-7.7-88.3-20c-23.8-12.9-38.6-30.9-38.6-51.1c0-9.9,3-19.4,9.6-26.2
		c5.8-6,14.2-9.8,25.4-9.8c15.9,0,25,9.2,35.3,19.7c11.6,11.8,25,25.4,53.5,25.4c11.7,0,21.2-2.5,27.8-6.5c6-3.7,9.4-8.9,9.4-14.6
		c0-13.4-12.9-16.6-34.2-21.9l-3.8-0.9l-43.1-10.5h0c-22.1-5.4-41.8-12.8-56.2-25.3c-14.8-12.9-23.8-30.9-23.8-57.2
		c0-63.7,62.2-87.3,115.4-87.3c30,0,60.2,6.3,82.2,17.2c21.2,10.5,35.1,25.6,35.1,43.9c0,9.8-3.4,19.2-9.5,26.1
		c-6.2,7-15.3,11.5-26.5,11.5v0c-14.7,0-22.7-7.2-31.6-15.2c-9.6-8.6-20.4-18.4-44.2-18.4c-12.4,0-22.3,1.6-28.8,5.1
		c-5,2.7-7.9,6.6-7.9,12c0,6.1,3,10,8.2,12.8c6.4,3.4,15.8,5.6,26.6,8h0.1l30.6,7c21.3,4.9,44.8,11.8,63.1,24.3
		c19,12.9,32.5,31.5,32.5,59.3C378.7,335.7,365.7,357.8,345.9,373.1z"/>
</svg>
