
<svg xmlns="http://www.w3.org/2000/svg" x="0px" y="0px" viewBox="0 0 512 512">
<path d="M256,0C114.6,0,0,114.6,0,256s114.6,256,256,256s256-114.6,256-256S397.4,0,256,0z M328.6,234.2
	c-9,26-19.3,55.9-23,66.4c-12.3,35.6-21.6,59.5-24.8,63.1c-4.3,4.7-11.9,4.3-17.2-1.1c-2.5-2.5-11.2-17.7-19.4-33.8
	c-8.2-16.1-16.5-31.6-18.5-34.5c-2.3-3.3-15.4-11.1-35-21c-35.3-17.8-40.1-21.6-39.1-31.4c0.9-9,4.5-10.8,54.2-28.1
	c22.7-7.9,59.4-20.7,81.5-28.3c22.1-7.7,42.6-14,45.6-14c6.2,0,12.1,5.5,12.1,11.4C345,185.1,337.6,208.2,328.6,234.2z"/>
</svg>
