<svg xmlns="http://www.w3.org/2000/svg" x="0px" y="0px" viewBox="0 0 512 512">
<g id="Icons">
	<g id="Black" transform="translate(-598.000000, -758.000000)">
		<path id="Viber" class="st0" d="M854,758c-141.4,0-256,114.6-256,256s114.6,256,256,256s256-114.6,256-256S995.4,758,854,758z
			 M843,863.4c2.4-2.2,4.1-2.5,12.3-2.2c4.3,0.2,10.6,0.7,14.1,1.1c17.4,2.2,31.5,6.4,46.9,13.9c15.2,7.4,24.9,14.5,37.8,27.2
			c12,12.1,18.7,21.2,25.8,35.4c9.9,19.8,15.5,43.3,16.5,69.3c0.4,8.8,0.1,10.8-1.9,13.3c-3.9,4.9-12.3,4.1-15.2-1.4
			c-0.9-1.8-1.2-3.4-1.5-10.5c-0.5-10.9-1.3-17.9-2.8-26.3c-6-32.9-21.8-59.2-47-78c-21-15.8-42.7-23.4-71.1-25.1
			c-9.6-0.5-11.3-0.9-13.5-2.6C839.3,874.4,839.1,866.9,843,863.4z M903.3,928.5c-10.2-6.1-25.2-10.6-38.9-11.7
			c-5-0.4-7.7-1.4-9.6-3.6c-2.9-3.3-3.2-7.7-0.8-11.4c2.6-4.1,6.7-4.8,18.8-2.9c30.7,4.5,54.5,18.7,70.1,41.9
			c8.8,13,14.2,28.4,16.1,44.8c0.7,6,0.7,17,0,18.8c-0.7,1.7-2.8,4-4.6,5c-2,1-6.2,0.9-8.5-0.3c-3.9-2-5.1-5.1-5.1-13.6
			c0-13.1-3.4-26.9-9.3-37.6C924.8,945.6,915.1,935.5,903.3,928.5z M920.4,995.9c-3,2.7-8.5,2.8-11.8,0.3c-2.4-1.8-3.2-3.7-3.8-8.9
			c-0.6-6.9-1.9-11.8-3.9-16.3c-4.5-9.5-12.3-14.5-25.6-16.1c-6.2-0.8-8.1-1.5-10.1-3.8c-3.7-4.4-2.3-11.5,2.8-14.2
			c1.9-1,2.7-1.1,7-0.8c2.6,0.2,6.5,0.6,8.6,1.1c10,2.1,17.6,5.9,24.1,12c8.4,7.9,13,17.5,15,31.3
			C924.1,989.4,923.6,992.9,920.4,995.9z M996,1128.6c-3.8,9.7-18.3,27.7-28.5,35.5c-9.2,7-15.7,9.6-24.3,10.1
			c-7.1,0.3-10-0.3-19.1-4c-71-29.3-127.8-72.9-172.8-132.9c-23.5-31.3-41.4-63.8-53.7-97.5c-7.1-19.7-7.5-28.2-1.6-38.2
			c2.5-4.3,13.3-14.8,21.2-20.6c13.1-9.7,19.1-13.3,23.9-14.3c3.3-0.7,9-0.2,12.6,1.2c1.8,0.6,4.5,2,6.1,3
			c9.6,6.4,36.4,40.6,45.1,57.7c5,9.8,6.7,17,5.1,22.3c-1.6,5.8-4.3,8.8-16.3,18.4c-4.8,3.9-9.3,7.9-10,8.9
			c-1.8,2.6-3.3,7.8-3.3,11.4c0,8.4,5.5,23.8,12.7,35.5c5.6,9.1,15.5,20.9,25.4,29.9c11.6,10.6,21.8,17.8,33.3,23.5
			c14.8,7.4,23.9,9.3,30.5,6.2c1.7-0.8,3.4-1.8,4-2.2c0.5-0.4,4.4-5.2,8.7-10.4c8.2-10.3,10.1-12,15.7-13.9c7.1-2.4,14.4-1.8,21.8,2
			c5.6,2.9,17.7,10.4,25.6,15.9c10.3,7.2,32.4,25.2,35.4,28.8C998.6,1111.2,999.5,1119.4,996,1128.6z"/>
	</g>
</g>
</svg>
