<svg xmlns="http://www.w3.org/2000/svg" x="0px" y="0px" viewBox="0 0 512 512">
		<path d="M438.8,72.7C393.5,27.8,331.1,0,262.1,0c-69,0-131.5,27.7-176.8,72.6c-45.3,44.9-73.3,106.9-73.3,175.4
			c0,23,3.2,45.3,9.1,66.5c5.9,21.1,14.5,41,25.5,59.4L3.4,501.9L0,512l10.2-3.3l133.1-42.4c17.6,9.5,36.5,16.9,56.3,22
			c20,5.1,40.9,7.8,62.5,7.8c69,0,131.5-27.8,176.7-72.6C484,378.6,512,316.6,512,248.2C512,179.6,484,117.6,438.8,72.7z
			 M410.6,327.1c-0.7,5.7-2.2,12.6-4.9,20.1c-3,8.4-10.9,16.3-19.8,22.6c-10.9,7.6-23.7,13-31.6,13.7c-1.8,0.1-3.4,0.5-5,1
			c-9.7,2.4-20.6,5-80.8-18.5c-66.3-25.9-109.9-89.7-119.4-103.6c-0.8-1.2-1.4-2-1.5-2.2l-0.1,0l0,0c-3.8-5-29.4-38.9-29.4-74.4
			c0-34,16.8-51.7,24.6-59.8c0.4-0.4,0.8-0.8,1.2-1.3c3.3-3.6,6.8-6,10.2-7.6c4.6-2.2,9.1-2.8,12.3-2.8c2.4,0,5,0.2,7.5,0.3
			c2,0.2,3.9,0.3,5.8,0.3c0.5,0,0.8,0,1.2-0.1c5.6-0.3,12.9-0.8,19.4,14.8c0.7,1.7,4.3,10.3,8,19.3c5.8,14.1,12.1,29.4,13.3,31.6
			c1.1,2.2,2,4.6,2.3,7.4c0.3,3-0.1,6.1-1.8,9.4l0,0c-0.3,0.7-0.7,1.4-1,2.1c-1.9,3.8-3.3,6.6-6.6,10.6l0,0
			c-1.4,1.6-2.5,2.9-3.6,4.3c-1.2,1.5-2.5,3-3.7,4.4s-2.4,2.7-3.4,3.8c-2,2-4.1,4.1-2.2,7.4c2.4,4.2,8.6,14.2,17.6,25.4
			c5.6,6.9,12.3,14.3,19.9,21.1c21.3,18.9,40,27,49.6,31.1c1.9,0.8,3.5,1.5,5,2.3c2.5,1.2,4.3,1.8,5.5,1.6c1-0.1,1.9-0.8,3-2v0
			c2.6-3,8.6-10,13.8-16.2c1.6-2,3.1-3.9,4.5-5.6s2.5-3.3,3.3-4.5c3.3-5,6.9-7.1,11-7.6c3.6-0.4,7,0.7,10.9,2
			c2.8,1,9.7,4.1,17.6,7.9c6.1,2.9,12.6,6,18.3,8.8c5.6,2.7,10.1,5,12.2,6c1.1,0.5,2.2,1,3.3,1.5c6,2.8,9.9,4.7,12.2,8.5l0,0
			C410.8,312.3,411.6,318.8,410.6,327.1z"/>
		<path class="st1" d="M438.8,72.7C393.5,27.8,331.1,0,262.1,0c-69,0-131.5,27.7-176.8,72.6c-45.3,44.9-73.3,106.9-73.3,175.4
			c0,23,3.2,45.3,9.1,66.5c5.9,21.1,14.5,41,25.5,59.4L3.4,501.9L0,512l10.2-3.3l133.1-42.4c17.6,9.5,36.5,16.9,56.3,22
			c20,5.1,40.9,7.8,62.5,7.8c69,0,131.5-27.8,176.7-72.6C484,378.6,512,316.6,512,248.2C512,179.6,484,117.6,438.8,72.7z
			 M410.6,327.1c-0.7,5.7-2.2,12.6-4.9,20.1c-3,8.4-10.9,16.3-19.8,22.6c-10.9,7.6-23.7,13-31.6,13.7c-1.8,0.1-3.4,0.5-5,1
			c-9.7,2.4-20.6,5-80.8-18.5c-66.3-25.9-109.9-89.7-119.4-103.6c-0.8-1.2-1.4-2-1.5-2.2l-0.1,0l0,0c-3.8-5-29.4-38.9-29.4-74.4
			c0-34,16.8-51.7,24.6-59.8c0.4-0.4,0.8-0.8,1.2-1.3c3.3-3.6,6.8-6,10.2-7.6c4.6-2.2,9.1-2.8,12.3-2.8c2.4,0,5,0.2,7.5,0.3
			c2,0.2,3.9,0.3,5.8,0.3c0.5,0,0.8,0,1.2-0.1c5.6-0.3,12.9-0.8,19.4,14.8c0.7,1.7,4.3,10.3,8,19.3c5.8,14.1,12.1,29.4,13.3,31.6
			c1.1,2.2,2,4.6,2.3,7.4c0.3,3-0.1,6.1-1.8,9.4l0,0c-0.3,0.7-0.7,1.4-1,2.1c-1.9,3.8-3.3,6.6-6.6,10.6l0,0
			c-1.4,1.6-2.5,2.9-3.6,4.3c-1.2,1.5-2.5,3-3.7,4.4s-2.4,2.7-3.4,3.8c-2,2-4.1,4.1-2.2,7.4c2.4,4.2,8.6,14.2,17.6,25.4
			c5.6,6.9,12.3,14.3,19.9,21.1c21.3,18.9,40,27,49.6,31.1c1.9,0.8,3.5,1.5,5,2.3c2.5,1.2,4.3,1.8,5.5,1.6c1-0.1,1.9-0.8,3-2v0
			c2.6-3,8.6-10,13.8-16.2c1.6-2,3.1-3.9,4.5-5.6s2.5-3.3,3.3-4.5c3.3-5,6.9-7.1,11-7.6c3.6-0.4,7,0.7,10.9,2
			c2.8,1,9.7,4.1,17.6,7.9c6.1,2.9,12.6,6,18.3,8.8c5.6,2.7,10.1,5,12.2,6c1.1,0.5,2.2,1,3.3,1.5c6,2.8,9.9,4.7,12.2,8.5l0,0
			C410.8,312.3,411.6,318.8,410.6,327.1z"/>
</svg>
